<?xml version="1.0" encoding="utf-8"?>
<!-- Generator: Adobe Illustrator 19.0.0, SVG Export Plug-In . SVG Version: 6.00 Build 0)  -->
<!DOCTYPE svg PUBLIC "-//W3C//DTD SVG 1.1//EN" "http://www.w3.org/Graphics/SVG/1.1/DTD/svg11.dtd">
<svg version="1.1" id="Capa_1" xmlns="http://www.w3.org/2000/svg" xmlns:xlink="http://www.w3.org/1999/xlink" x="0px" y="0px"
	 viewBox="-282 405.6 30.2 30.2" style="enable-background:new -282 405.6 30.2 30.2;" xml:space="preserve">
<style type="text/css">
	.st0{fill:#D3BB86;}
</style>
<g>
	<path d="M-252,429.8l-4.7-6.6v-7.5c0-5.6-4.5-10.1-10.1-10.1c-5.6,0-10.1,4.5-10.1,10.1v7.5l-4.7,6.6c-0.3,0.5-0.4,1.1-0.1,1.6
		c0.3,0.5,0.8,0.8,1.3,0.8h10c0,0,0,0,0,0c0,2,1.6,3.6,3.6,3.6c2,0,3.6-1.6,3.6-3.6c0,0,0,0,0,0h10c0.6,0,1.1-0.3,1.3-0.8
		C-251.7,430.9-251.7,430.3-252,429.8z M-277.6,429.2l3.3-4.6c0.2-0.3,0.3-0.6,0.3-0.9v-8c0-3.9,3.2-7.1,7.1-7.1
		c3.9,0,7.1,3.2,7.1,7.1v8c0,0.3,0.1,0.6,0.3,0.9l3.3,4.6H-277.6z"/>
</g>
<g>
	<g>
		<path class="st0" d="M-262.9,424.9c-0.9,0.9-2.4,0.9-3.2,0l-5-5c-0.9-0.9-0.9-2.4,0-3.2c0.9-0.9,2.4-0.9,3.2,0l3,3
			c0.2,0.2,0.6,0.2,0.8,0l8.1-8.1c0.9-0.9,2.4-0.9,3.2,0c0.4,0.4,0.7,1,0.7,1.6s-0.2,1.2-0.7,1.6L-262.9,424.9z"/>
	</g>
</g>
</svg>
