<?xml version="1.0" encoding="iso-8859-1"?>
<!-- Generator: Adobe Illustrator 16.0.0, SVG Export Plug-In . SVG Version: 6.00 Build 0)  -->
<!DOCTYPE svg PUBLIC "-//W3C//DTD SVG 1.1//EN" "http://www.w3.org/Graphics/SVG/1.1/DTD/svg11.dtd">
<svg version="1.1" id="Capa_1" xmlns="http://www.w3.org/2000/svg" xmlns:xlink="http://www.w3.org/1999/xlink" x="0px" y="0px"
	 width="30.25px" height="30.25px" viewBox="0 0 30.25 30.25" style="enable-background:new 0 0 30.25 30.25;" xml:space="preserve"
	>
<g>
	<path d="M29.967,24.208l-4.742-6.582v-7.506c0-5.568-4.53-10.099-10.1-10.099c-5.569,0-10.1,4.53-10.1,10.099v7.506l-4.742,6.582
		c-0.329,0.457-0.375,1.061-0.118,1.562c0.256,0.501,0.772,0.815,1.335,0.815h10.008c0,0.012-0.003,0.019-0.003,0.027
		c0,1.999,1.622,3.618,3.62,3.618s3.619-1.619,3.619-3.618c0-0.011-0.003-0.02-0.003-0.027H28.75c0.562,0,1.079-0.314,1.335-0.815
		C30.342,25.267,30.296,24.665,29.967,24.208z M4.43,23.584l3.313-4.599c0.184-0.255,0.283-0.562,0.283-0.877v-7.991
		c0-3.914,3.185-7.099,7.1-7.099s7.1,3.185,7.1,7.099v7.991c0,0.313,0.101,0.622,0.283,0.877l3.312,4.599H4.43z"/>
</g>
<g>
</g>
<g>
</g>
<g>
</g>
<g>
</g>
<g>
</g>
<g>
</g>
<g>
</g>
<g>
</g>
<g>
</g>
<g>
</g>
<g>
</g>
<g>
</g>
<g>
</g>
<g>
</g>
<g>
</g>
</svg>
