<?xml version="1.0" encoding="utf-8"?>
<!-- Generator: Adobe Illustrator 19.1.0, SVG Export Plug-In . SVG Version: 6.00 Build 0)  -->
<!DOCTYPE svg PUBLIC "-//W3C//DTD SVG 1.1//EN" "http://www.w3.org/Graphics/SVG/1.1/DTD/svg11.dtd">
<svg version="1.1" id="Livello_1" xmlns="http://www.w3.org/2000/svg" xmlns:xlink="http://www.w3.org/1999/xlink" x="0px" y="0px"
	 viewBox="-285 535 270.8 122.5" style="enable-background:new -285 535 270.8 122.5;" xml:space="preserve">
<metadata><?xpacket begin="﻿" id="W5M0MpCehiHzreSzNTczkc9d"?>
<x:xmpmeta xmlns:x="adobe:ns:meta/" x:xmptk="Adobe XMP Core 5.6-c067 79.157747, 2015/03/30-23:40:42        ">
   <rdf:RDF xmlns:rdf="http://www.w3.org/1999/02/22-rdf-syntax-ns#">
      <rdf:Description rdf:about=""/>
   </rdf:RDF>
</x:xmpmeta>
                                                                                                    
                                                                                                    
                                                                                                    
                                                                                                    
                                                                                                    
                                                                                                    
                                                                                                    
                                                                                                    
                                                                                                    
                                                                                                    
                                                                                                    
                                                                                                    
                                                                                                    
                                                                                                    
                                                                                                    
                                                                                                    
                                                                                                    
                                                                                                    
                                                                                                    
                                                                                                    
                           
<?xpacket end="w"?></metadata>
<style type="text/css">
	.st0{fill:#DAC182;}
	.st1{fill:#231F20;}
	.st2{fill:#D3BA85;}
</style>
<g id="XMLID_1_">
	<rect id="XMLID_941_" x="-192.1" y="535" width="6.5" height="87.4"/>
	<rect id="XMLID_940_" x="-202.6" y="535" width="4.8" height="87.4"/>
	<rect id="XMLID_939_" x="-182.4" y="535" class="st0" width="2.7" height="87.4"/>
	<rect id="XMLID_936_" x="-178" y="535" width="2.7" height="87.4"/>
	<rect id="XMLID_935_" x="-171.9" y="535" width="1.4" height="87.4"/>
	<rect id="XMLID_932_" x="-164.9" y="535" class="st0" width="10.1" height="87.4"/>
	<rect id="XMLID_931_" x="-250.1" y="535" width="10.1" height="87.4"/>
	<rect id="XMLID_928_" x="-137.7" y="535" class="st0" width="6.5" height="87.4"/>
	<rect id="XMLID_927_" x="-143.6" y="535" width="2.7" height="87.4"/>
	<rect id="XMLID_924_" x="-148" y="535" class="st0" width="2.7" height="87.4"/>
	<rect id="XMLID_921_" x="-119.9" y="535" class="st0" width="2.7" height="87.4"/>
	<rect id="XMLID_920_" x="-124.4" y="535" width="2.7" height="87.4"/>
	<rect id="XMLID_917_" x="-206.9" y="535" class="st0" width="2.2" height="87.4"/>
	<rect id="XMLID_916_" x="-210.4" y="535" width="2.2" height="87.4"/>
	<rect id="XMLID_913_" x="-222.6" y="535" class="st0" width="4.5" height="87.4"/>
	<rect id="XMLID_912_" x="-232.3" y="535" width="7.5" height="87.4"/>
	<rect id="XMLID_911_" x="-152.2" y="535" width="1.4" height="87.4"/>
	<rect id="XMLID_908_" x="-278" y="535" width="6.5" height="87.4"/>
	<rect id="XMLID_907_" x="-268.4" y="535" width="2.7" height="87.4"/>
	<rect id="XMLID_904_" x="-263.9" y="535" class="st0" width="2.7" height="87.4"/>
	<rect id="XMLID_903_" x="-258.6" y="535" width="2.7" height="87.4"/>
	<rect id="XMLID_902_" x="-284.6" y="535" width="2.7" height="87.4"/>
	<rect id="XMLID_899_" x="-253.9" y="535" width="1.4" height="87.4"/>
	<rect id="XMLID_896_" x="-236.4" y="535" width="2.2" height="87.4"/>
	<rect id="XMLID_893_" x="-50.1" y="535" width="6.5" height="87.4"/>
	<rect id="XMLID_892_" x="-60.7" y="535" width="4.8" height="87.4"/>
	<rect id="XMLID_891_" x="-40.5" y="535" width="2.7" height="87.4"/>
	<rect id="XMLID_888_" x="-36" y="535" class="st0" width="2.7" height="87.4"/>
	<rect id="XMLID_887_" x="-30" y="535" width="1.4" height="87.4"/>
	<rect id="XMLID_886_" x="-17.3" y="535" width="2.7" height="87.4"/>
	<rect id="XMLID_883_" x="-64.9" y="535" width="2.2" height="87.4"/>
	<rect id="XMLID_882_" x="-68.5" y="535" width="2.2" height="87.4"/>
	<rect id="XMLID_879_" x="-80.6" y="535" width="4.5" height="87.4"/>
	<rect id="XMLID_878_" x="-90.3" y="535" width="7.5" height="87.4"/>
	<rect id="XMLID_875_" x="-25.9" y="535" width="5.2" height="87.4"/>
	<rect id="XMLID_872_" x="-94.5" y="535" class="st0" width="2.2" height="87.4"/>
	<rect id="XMLID_871_" x="-98" y="535" width="2.2" height="87.4"/>
	<rect id="XMLID_868_" x="-103.1" y="535" class="st0" width="3.3" height="87.4"/>
	<rect id="XMLID_867_" x="-114.3" y="535" width="5.5" height="87.4"/>
</g>
<g>
	<path class="st1" d="M-282.4,655.6c1.1-0.1,1.8-0.2,2.1-0.3c0.2-0.1,0.5-0.6,0.9-1.4c0.7-1.6,1.7-3.7,2.8-6.5l6.4-15.7h2.7
		l8.2,19.4c1.1,2.5,1.7,3.8,2,4c0.2,0.2,1,0.4,2.3,0.5v1.6c-2-0.1-3.8-0.1-5.6-0.1c-2.1,0-4.1,0-6,0.1v-1.6c1.4-0.1,2.3-0.1,2.5-0.2
		c0.2-0.1,0.3-0.3,0.3-0.5s-0.3-1-0.8-2.3l-1.2-3c-1.5,0-3.2-0.1-5-0.1c-1.6,0-3.1,0-4.4,0.1l-0.8,2c-0.2,0.6-0.5,1.4-0.8,2.5
		c-0.1,0.2-0.1,0.5-0.1,0.7c0,0.3,0.1,0.5,0.4,0.6c0.2,0.1,1.1,0.2,2.5,0.3v1.6c-1.2-0.1-2.7-0.1-4.4-0.1c-1.7,0-3,0-4,0.1
		L-282.4,655.6L-282.4,655.6z M-270.5,638l-3.8,9.3c1.1,0.1,2.3,0.1,3.7,0.1c1.4,0,2.7,0,4-0.1L-270.5,638z"/>
	<path class="st1" d="M-253.8,657.2v-1.1c1-0.1,1.5-0.2,1.7-0.2c0.1-0.1,0.2-0.1,0.2-0.2c0.1-0.2,0.1-0.9,0.2-2.1
		c0-1.8,0.1-3.2,0.1-4.3c0-1.4,0-3.2-0.1-5.3c0-1.6-0.1-2.6-0.2-3c0-0.1-0.1-0.2-0.2-0.3c-0.1-0.1-0.7-0.2-1.6-0.3v-1.1
		c1.7,0.1,2.9,0.1,3.4,0.1l6.4-0.1c1.4,0,2.4,0.1,3,0.4c0.6,0.3,1.1,0.7,1.5,1.3s0.6,1.3,0.6,2.1c0,1-0.3,1.9-0.9,2.7
		c-0.6,0.8-1.6,1.4-3.1,2l2.7,4.1l2.1,3.1c0.4,0.5,0.7,0.8,0.9,0.9c0.2,0.1,0.5,0.2,1,0.2v1h-0.7c-2.1,0-3.5,0-4.1,0.1
		c-0.7-1.2-1.8-2.9-3.3-5.1l-2.6-4c0.1-0.1,0.1-0.3,0.2-0.5c0.3,0,0.6,0.1,0.7,0.1c0.8,0,1.6-0.3,2.3-1s1.1-1.5,1.1-2.7
		c0-1-0.3-1.8-0.9-2.4c-0.6-0.6-1.5-0.9-2.7-0.9c-0.4,0-0.9,0-1.6,0.1l-0.1,3.7l-0.1,4.7c0,1.1,0,2.4,0.1,4.1c0.1,1.3,0.1,2,0.2,2.1
		c0.1,0.1,0.1,0.2,0.3,0.3s0.7,0.2,1.7,0.2v1.1c-1.5-0.1-2.9-0.1-4-0.1C-251,657.1-252.3,657.1-253.8,657.2z"/>
	<path class="st1" d="M-231.6,657.2v-1.1c0.5,0,1,0,1.5-0.1c0.2,0,0.4-0.1,0.5-0.2c0.1-0.1,0.2-0.3,0.2-0.5c0.1-0.4,0.1-1.7,0.2-4
		c0-1.6,0-3.3,0-5c0-3.4,0-5.1,0-5.1c0-0.1-0.3-0.1-0.9-0.1c-1.2,0-2.2,0-3,0.1c-0.5,0-0.8,0.1-0.8,0.1c-0.1,0-0.1,0.1-0.1,0.2
		c0,0.1-0.1,0.8-0.2,2.2h-1.1c0-1.6,0-3-0.1-4.2l0.1-0.1c2.7,0.1,5.3,0.2,7.8,0.2s5.3-0.1,8.4-0.2l0.1,0.2c-0.2,1.2-0.3,2.5-0.3,4.1
		h-1.1c-0.1-1.4-0.2-2.2-0.2-2.3c-0.1-0.1-0.2-0.2-0.4-0.2c-0.7-0.1-2-0.2-4-0.2c-0.2,0-0.3,0-0.3,0.1s-0.1,0.3-0.1,0.7l-0.1,8.5
		c0,2.5,0,4,0.1,4.5c0,0.6,0.1,0.9,0.3,1c0.1,0.1,0.8,0.2,2,0.3v1.1c-1.2-0.1-2.6-0.1-4-0.1C-229,657.1-230.5,657.1-231.6,657.2z"/>
	<path class="st2" d="M-217.3,657.2v-1.5c1.5,0,2.4-0.1,2.7-0.3c0.2-0.1,0.3-0.6,0.3-1.3c0.1-2.4,0.2-5.1,0.2-8.2
		c0-2.3,0-4.7-0.1-7.3s-0.2-4.1-0.3-4.5c-0.1-0.2-0.2-0.3-0.3-0.4c-0.2-0.1-1.1-0.2-2.5-0.3v-1.5c2.1,0.1,3.9,0.1,5.5,0.1
		c2.2,0,4.6,0,7-0.1c1.6,0,3,0,4.1,0c0.8,0,1.5,0,2.2,0.1l0.2,0.4c-0.3,1.5-0.4,3.3-0.5,5.3h-1.5l-0.1-1.9c0-0.6-0.1-1-0.2-1.1
		c-0.1-0.1-0.6-0.3-1.3-0.4c-0.8-0.1-1.9-0.2-3.3-0.2c-1.1,0-2.2,0.1-3.3,0.2c-0.1,2-0.2,3.5-0.2,4.3v3.9v0.8c0.7,0,1.6,0.1,2.6,0.1
		c1.8,0,3,0,3.3-0.1c0.2,0,0.3-0.1,0.4-0.3c0.1-0.3,0.2-1,0.3-2.3h1.6c0,1.1-0.1,2.1-0.1,3.2c0,1,0,2.6,0.1,4.7h-1.6
		c-0.1-1.6-0.2-2.5-0.3-2.8c-0.1-0.1-0.2-0.2-0.5-0.3c-0.6-0.2-1.8-0.2-3.5-0.2l-2.4,0.1l0.1,6.9c0,1.7,0.1,2.6,0.3,2.9
		c0.1,0.2,0.2,0.3,0.4,0.4c0.2,0.1,1.2,0.2,3,0.3v1.5c-1.9-0.1-3.7-0.1-5.4-0.1C-212.1,657.1-214.3,657.1-217.3,657.2z"/>
	<path class="st2" d="M-187.3,657.4c-3.1,0-5.5-0.8-7.2-2.4c-1.7-1.6-2.5-3.8-2.5-6.6c0-2,0.4-3.6,1.2-5s1.9-2.4,3.3-3.2
		c1.4-0.7,3.3-1.1,5.5-1.1s3.9,0.4,5.3,1.1c1.4,0.7,2.4,1.7,3.2,2.9c0.7,1.3,1.1,2.8,1.1,4.6c0,2-0.4,3.7-1.2,5.1
		c-0.8,1.4-2,2.6-3.4,3.3C-183.5,657-185.3,657.4-187.3,657.4z M-186.9,656.1c1.7,0,3.1-0.6,4.1-1.9c1-1.3,1.5-3.2,1.5-5.7
		c0-2.7-0.6-4.8-1.7-6.2c-0.9-1.2-2.4-1.7-4.3-1.7c-1.8,0-3.2,0.6-4.2,1.8s-1.5,3.1-1.5,5.6c0,1.8,0.3,3.3,0.8,4.6s1.2,2.2,2.1,2.7
		C-189.3,655.8-188.2,656.1-186.9,656.1z"/>
	<path class="st2" d="M-175.7,640.5v-1.1c1.7,0.1,3.2,0.1,4.5,0.1c0.8,0,2,0,3.5-0.1v1.1c-0.8,0-1.3,0.1-1.6,0.2
		c-0.1,0-0.2,0.1-0.3,0.2c-0.1,0.1-0.2,0.3-0.2,0.6c-0.1,0.5-0.1,1.8-0.1,4.1c0,1.6,0,3.2,0,4.8c0,1.3,0.2,2.3,0.5,2.9
		c0.3,0.6,0.7,1.1,1.3,1.4c0.8,0.4,1.8,0.6,2.8,0.6c1.4,0,2.4-0.2,3.1-0.7c0.7-0.4,1.2-1.1,1.4-1.9c0.2-0.8,0.4-2.5,0.4-5.2v-4.7
		c0-1.1-0.1-1.7-0.2-1.9c-0.1-0.1-0.1-0.2-0.3-0.3s-0.8-0.2-1.9-0.3v-1.1c1.1,0.1,2.1,0.1,3,0.1c0.8,0,1.8,0,2.9-0.1v1.1
		c-0.8,0-1.4,0.1-1.6,0.3c-0.2,0.2-0.3,0.7-0.4,1.4c-0.1,1.9-0.1,4-0.2,6.4c0,1.5,0,2.5-0.1,3c-0.1,1.2-0.4,2.2-0.8,3
		c-0.5,0.8-1.3,1.5-2.4,2c-1.1,0.5-2.5,0.8-4.1,0.8c-1.7,0-3.1-0.3-4.2-0.8c-1.1-0.5-1.9-1.1-2.4-1.9c-0.5-0.8-0.7-1.9-0.7-3.4
		l0.1-5.7c0-0.5,0-1.6-0.1-3.5c0-0.6-0.1-1-0.2-1.2c-0.1-0.1-0.2-0.2-0.3-0.3C-174.2,640.6-174.7,640.5-175.7,640.5z"/>
	<path class="st2" d="M-155.3,657.2v-1.1c1,0,1.6-0.1,1.8-0.2c0.1-0.1,0.2-0.2,0.3-0.3c0.1-0.2,0.2-0.9,0.2-2.1c0-2,0.1-3.6,0.1-4.6
		v-5.4c0-1.4,0-2.2-0.1-2.5c-0.1-0.1-0.1-0.2-0.2-0.3c-0.2-0.1-0.8-0.2-1.9-0.3v-1.1c1.3,0,2.3,0.1,2.9,0.1c0.7,0,1.5,0,2.4-0.1
		c2,2.5,4.2,5.2,6.6,8.1c1.6,1.9,3.1,3.6,4.2,4.8v-5c0-1.9,0-3.5-0.1-4.9c0-0.8-0.1-1.3-0.2-1.5c-0.1-0.1-0.1-0.2-0.3-0.2
		c-0.1,0-0.7-0.1-1.8-0.2v-1.1c0.9,0,1.8,0.1,2.7,0.1c1.2,0,2.4,0,3.4-0.1v1.1c-0.9,0.1-1.5,0.1-1.7,0.2c-0.1,0-0.2,0.1-0.3,0.2
		c-0.1,0.1-0.1,0.2-0.2,0.3c-0.1,0.2-0.1,0.9-0.1,2v5.1v5.1c0,1.4,0,2.7,0.1,4.1l-0.2,0.2c-1-0.2-1.8-0.3-2.2-0.4
		c-2.2-2.4-4.8-5.4-7.9-9.1c-1.6-1.8-2.8-3.4-3.8-4.6v4.9c0,1.3,0,3,0.1,4.9c0,1.4,0.1,2.2,0.2,2.4c0,0.1,0.1,0.2,0.2,0.2
		c0.2,0.1,0.8,0.2,1.8,0.3v1.1c-1.4-0.1-2.3-0.1-2.9-0.1C-152.7,657.1-153.7,657.1-155.3,657.2z"/>
	<path class="st2" d="M-132.8,657.2v-0.7c0.6-0.3,1-0.6,1.2-0.8c0.1-1.5,0.2-4.3,0.2-8.3c0-1.8,0-3.2-0.1-4.4c0-1.2-0.1-1.9-0.2-2
		c0-0.1-0.1-0.1-0.2-0.2c-0.1-0.1-0.7-0.2-1.9-0.3v-1.1c1.3,0,2.7,0.1,4.4,0.1l6.2-0.1c2.3,0,4,0.3,5.2,0.9c1.2,0.6,2.1,1.5,2.8,2.6
		c0.7,1.2,1,2.6,1,4.3c0,2.2-0.5,4-1.6,5.6s-2.4,2.7-4,3.4s-3.2,1-5,1l-4.8-0.1C-130.1,657.1-131.2,657.1-132.8,657.2z
		 M-127.6,655.6c0.7,0.1,1.4,0.2,2.2,0.2c1.9,0,3.3-0.3,4.3-0.8s1.8-1.4,2.4-2.7c0.6-1.2,0.9-2.7,0.9-4.5c0-2.4-0.6-4.2-1.8-5.4
		c-1.1-1.1-2.8-1.6-5.3-1.6c-0.5,0-1.4,0-2.7,0.1l-0.1,7.9C-127.7,652.1-127.7,654.4-127.6,655.6z"/>
	<path class="st1" d="M-106.7,657.2v-1.5c0.7,0,1.4-0.1,2.2-0.2c0.3-0.1,0.6-0.2,0.7-0.3s0.3-0.4,0.3-0.8c0.1-0.5,0.2-2.4,0.2-5.7
		c0-2.3,0.1-4.7,0.1-7.2c0-4.8,0-7.2,0-7.3s-0.5-0.1-1.3-0.1c-1.7,0-3.1,0-4.3,0.1c-0.7,0.1-1.1,0.1-1.2,0.2s-0.2,0.2-0.2,0.3
		c0,0.2-0.2,1.2-0.3,3.2h-1.6c0-2.3,0-4.3-0.2-6l0.2-0.1c3.8,0.2,7.5,0.3,11.1,0.3s7.6-0.1,12-0.3l0.2,0.3c-0.2,1.7-0.4,3.6-0.5,5.8
		h-1.5c-0.1-2-0.2-3.1-0.3-3.3c-0.1-0.1-0.3-0.2-0.6-0.3c-1-0.2-2.9-0.2-5.8-0.2c-0.2,0-0.4,0-0.4,0.1s-0.1,0.4-0.1,1l-0.1,12.2
		c0,3.5,0,5.7,0.1,6.5s0.2,1.3,0.4,1.5c0.2,0.1,1.1,0.2,2.9,0.4v1.5c-1.8-0.1-3.7-0.1-5.7-0.1C-103,657.1-105.1,657.1-106.7,657.2z"
		/>
	<path class="st1" d="M-87.3,657.2v-1.1c1-0.1,1.5-0.2,1.7-0.2c0.1-0.1,0.2-0.1,0.2-0.2c0.1-0.2,0.1-0.9,0.2-2.1
		c0-1.8,0.1-3.2,0.1-4.3c0-1.4,0-3.2-0.1-5.3c0-1.6-0.1-2.6-0.2-3c0-0.1-0.1-0.2-0.2-0.3s-0.7-0.2-1.6-0.3v-1.1
		c1.7,0.1,2.9,0.1,3.4,0.1l6.4-0.1c1.4,0,2.4,0.1,3,0.4c0.6,0.3,1.1,0.7,1.5,1.3s0.6,1.3,0.6,2.1c0,1-0.3,1.9-0.9,2.7
		s-1.6,1.4-3.1,2l2.7,4.1l2.1,3.1c0.4,0.5,0.7,0.8,0.9,0.9c0.2,0.1,0.5,0.2,1,0.2v1h-0.7c-2.1,0-3.5,0-4.1,0.1
		c-0.7-1.2-1.8-2.9-3.3-5.1l-2.6-4c0.1-0.1,0.1-0.3,0.2-0.5c0.3,0,0.6,0.1,0.7,0.1c0.8,0,1.6-0.3,2.3-1c0.8-0.6,1.1-1.5,1.1-2.7
		c0-1-0.3-1.8-0.9-2.4c-0.6-0.6-1.5-0.9-2.7-0.9c-0.4,0-0.9,0-1.6,0.1l-0.1,3.7l-0.1,4.7c0,1.1,0,2.4,0.1,4.1c0.1,1.3,0.1,2,0.2,2.1
		s0.1,0.2,0.3,0.3c0.2,0.1,0.7,0.2,1.7,0.2v1.1c-1.5-0.1-2.9-0.1-4-0.1C-84.5,657.1-85.8,657.1-87.3,657.2z"/>
	<path class="st1" d="M-68.7,640.5v-1.1c1.7,0.1,3.2,0.1,4.5,0.1c0.8,0,2,0,3.5-0.1v1.1c-0.8,0-1.3,0.1-1.6,0.2
		c-0.1,0-0.2,0.1-0.3,0.2c-0.1,0.1-0.2,0.3-0.2,0.6c-0.1,0.5-0.1,1.8-0.1,4.1c0,1.6,0,3.2,0,4.8c0,1.3,0.2,2.3,0.5,2.9
		c0.3,0.6,0.7,1.1,1.3,1.4c0.8,0.4,1.8,0.6,2.8,0.6c1.4,0,2.4-0.2,3.1-0.7c0.7-0.4,1.2-1.1,1.4-1.9c0.2-0.8,0.4-2.5,0.4-5.2v-4.7
		c0-1.1-0.1-1.7-0.2-1.9c-0.1-0.1-0.1-0.2-0.3-0.3s-0.8-0.2-1.9-0.3v-1.1c1.1,0.1,2.1,0.1,3,0.1c0.8,0,1.8,0,2.9-0.1v1.1
		c-0.8,0-1.4,0.1-1.6,0.3c-0.2,0.2-0.3,0.7-0.4,1.4c-0.1,1.9-0.1,4-0.2,6.4c0,1.5,0,2.5-0.1,3c-0.1,1.2-0.4,2.2-0.8,3
		c-0.5,0.8-1.3,1.5-2.4,2c-1.1,0.5-2.5,0.8-4.1,0.8c-1.7,0-3.1-0.3-4.2-0.8s-1.9-1.1-2.4-1.9c-0.5-0.8-0.7-1.9-0.7-3.4l0.1-5.7
		c0-0.5,0-1.6-0.1-3.5c0-0.6-0.1-1-0.2-1.2c-0.1-0.1-0.2-0.2-0.3-0.3C-67.2,640.6-67.8,640.5-68.7,640.5z"/>
	<path class="st1" d="M-47.4,651.8h1.1c0,1.2,0,2,0.1,2.2s0.3,0.5,0.7,0.8c0.4,0.4,1,0.6,1.6,0.9c0.7,0.2,1.3,0.3,2,0.3
		c1.2,0,2.1-0.3,2.9-0.9c0.7-0.6,1.1-1.4,1.1-2.4c0-0.9-0.2-1.5-0.7-2s-1.4-0.8-2.7-1c-2-0.3-3.3-0.6-4-0.9
		c-0.7-0.3-1.2-0.8-1.6-1.5c-0.4-0.7-0.6-1.5-0.6-2.4c0-1.6,0.6-2.9,1.7-4c1.1-1.1,2.9-1.7,5.4-1.7c1,0,1.8,0.1,2.6,0.2
		c0.7,0.1,1.5,0.4,2.2,0.7l0.1,0.3c-0.1,0.5-0.2,1-0.3,1.4s-0.1,1.2-0.1,2.2h-1.3c0-1.3-0.1-2-0.2-2.2c-0.2-0.3-0.6-0.6-1.2-0.9
		c-0.7-0.3-1.4-0.5-2.3-0.5c-1.2,0-2.1,0.3-2.7,0.8c-0.6,0.6-1,1.3-1,2.2c0,0.5,0.1,1,0.4,1.4c0.3,0.4,0.6,0.7,1.1,0.9
		s1.5,0.4,3,0.7c1.4,0.2,2.4,0.4,2.9,0.6c0.8,0.3,1.4,0.8,1.9,1.5c0.4,0.7,0.6,1.5,0.6,2.6c0,1.8-0.7,3.3-2.1,4.5
		c-1.4,1.2-3.2,1.8-5.6,1.8c-1.1,0-2-0.1-2.9-0.3s-1.8-0.5-2.7-1c0.2-0.6,0.3-1.1,0.3-1.6C-47.5,653.9-47.4,653-47.4,651.8z"/>
	<path class="st1" d="M-29,657.2v-1.1c0.5,0,1,0,1.5-0.1c0.2,0,0.4-0.1,0.5-0.2c0.1-0.1,0.2-0.3,0.2-0.5c0.1-0.4,0.1-1.7,0.2-4
		c0-1.6,0-3.3,0-5c0-3.4,0-5.1,0-5.1c0-0.1-0.3-0.1-0.9-0.1c-1.2,0-2.2,0-3,0.1c-0.5,0-0.8,0.1-0.8,0.1c-0.1,0-0.1,0.1-0.1,0.2
		c0,0.1-0.1,0.8-0.2,2.2h-1.1c0-1.6,0-3-0.1-4.2l0.1-0.1c2.7,0.1,5.3,0.2,7.8,0.2s5.3-0.1,8.4-0.2l0.1,0.2c-0.2,1.2-0.3,2.5-0.3,4.1
		h-1.1c-0.1-1.4-0.2-2.2-0.2-2.3c-0.1-0.1-0.2-0.2-0.4-0.2c-0.7-0.1-2-0.2-4-0.2c-0.2,0-0.3,0-0.3,0.1s-0.1,0.3-0.1,0.7l-0.1,8.5
		c0,2.5,0,4,0.1,4.5c0,0.6,0.1,0.9,0.3,1c0.1,0.1,0.8,0.2,2,0.3v1.1c-1.2-0.1-2.6-0.1-4-0.1C-26.4,657.1-27.9,657.1-29,657.2z"/>
</g>
</svg>
