<?xml version="1.0" encoding="utf-8"?>
<!-- Generator: Adobe Illustrator 19.0.1, SVG Export Plug-In . SVG Version: 6.00 Build 0)  -->
<svg version="1.1" id="Layer_1" xmlns="http://www.w3.org/2000/svg" xmlns:xlink="http://www.w3.org/1999/xlink" x="0px" y="0px"
	 width="89.2px" height="89.2px" viewBox="0 0 89.2 89.2" enable-background="new 0 0 89.2 89.2" xml:space="preserve">
<g id="linkedin">
	<rect fill="#EBE0C7" width="89.2" height="89.2"/>
	<path fill="#FFFFFF" d="M36.1,58.3h-5.9V39.4h5.9V58.3z M33,37L33,37c-2.2,0-3.6-1.4-3.6-3.3c0-1.9,1.4-3.3,3.6-3.3
		c2.2,0,3.5,1.4,3.6,3.3C36.6,35.6,35.3,37,33,37z M59.7,58.3H53v-9.8c0-2.6-1-4.3-3.3-4.3c-1.8,0-2.7,1.2-3.2,2.3
		c-0.2,0.4-0.1,1-0.1,1.5v10.2h-6.6c0,0,0.1-17.3,0-18.9h6.6v3c0.4-1.3,2.5-3.1,5.9-3.1c4.2,0,7.5,2.7,7.5,8.6V58.3z"/>
</g>
</svg>
