<?xml version="1.0" encoding="utf-8"?>
<!-- Generator: Adobe Illustrator 19.0.1, SVG Export Plug-In . SVG Version: 6.00 Build 0)  -->
<svg version="1.1" id="Layer_1" xmlns="http://www.w3.org/2000/svg" xmlns:xlink="http://www.w3.org/1999/xlink" x="0px" y="0px"
	 width="89.2px" height="89.2px" viewBox="0 0 89.2 89.2" enable-background="new 0 0 89.2 89.2" xml:space="preserve">
<g id="instagram">
	<rect fill="#EBE0C7" width="89.2" height="89.2"/>
	<path fill="#FFFFFF" d="M53,29.6H34.8c-3.2,0-5.7,2.6-5.7,5.7v6.1v12.2c0,3.2,2.6,5.7,5.7,5.7H53c3.2,0,5.7-2.6,5.7-5.7V41.4v-6.1
		C58.8,32.1,56.2,29.6,53,29.6z M54.7,33l0.7,0v0.7V38l-5,0l0-5L54.7,33z M39.7,41.4c1-1.3,2.5-2.2,4.2-2.2c1.7,0,3.3,0.9,4.2,2.2
		c0.6,0.9,1,1.9,1,3.1c0,2.9-2.4,5.2-5.2,5.2s-5.2-2.3-5.2-5.2C38.7,43.3,39,42.3,39.7,41.4z M55.9,53.6c0,1.6-1.3,2.8-2.9,2.8H34.8
		c-1.6,0-2.9-1.3-2.9-2.8V41.4h4.4c-0.4,0.9-0.6,2-0.6,3.1c0,4.5,3.6,8.1,8.1,8.1c4.5,0,8.1-3.7,8.1-8.1c0-1.1-0.2-2.1-0.6-3.1h4.4
		V53.6z"/>
</g>
</svg>
