<?xml version="1.0" encoding="utf-8"?>
<!-- Generator: Adobe Illustrator 19.0.1, SVG Export Plug-In . SVG Version: 6.00 Build 0)  -->
<svg version="1.1" id="Layer_1" xmlns="http://www.w3.org/2000/svg" xmlns:xlink="http://www.w3.org/1999/xlink" x="0px" y="0px"
	 width="89.2px" height="89.2px" viewBox="0 0 89.2 89.2" enable-background="new 0 0 89.2 89.2" xml:space="preserve">
<g>
	<rect fill="#E1E1E1" width="89.2" height="89.2"/>
	<g>
		<path fill="#FFFFFF" d="M58.7,42c0,0.3,0,11.5,0,11.5c0,0.6-0.9,1.5-1.6,1.5H32.1c-0.7,0-1.6-0.9-1.6-1.5c0,0,0-11.2,0-11.5
			c0-0.3,0-0.6,0.6-0.3c0.9,0.4,11.5,6,12,6.3c0.6,0.3,0.9,0.3,1.4,0.3c0.5,0,0.9,0,1.4-0.3c0.5-0.3,11.2-5.8,12-6.3
			C58.7,41.4,58.7,41.8,58.7,42z M31.4,36.9h26.5c1.4,0,0.7,1.3-0.1,1.7c-0.8,0.4-11.3,6.1-11.7,6.3c-0.4,0.3-0.9,0.3-1.4,0.3
			c-0.5,0-1-0.1-1.4-0.3c-0.4-0.2-11-5.9-11.7-6.3C30.7,38.2,30,36.9,31.4,36.9z"/>
	</g>
</g>
</svg>
