<?xml version="1.0" encoding="utf-8"?>
<!-- Generator: Adobe Illustrator 19.0.1, SVG Export Plug-In . SVG Version: 6.00 Build 0)  -->
<svg version="1.1" id="Layer_1" xmlns="http://www.w3.org/2000/svg" xmlns:xlink="http://www.w3.org/1999/xlink" x="0px" y="0px"
	 width="89.2px" height="89.2px" viewBox="0 0 89.2 89.2" enable-background="new 0 0 89.2 89.2" xml:space="preserve">
<g id="google_x2B_">
	<rect fill="#EBE0C7" width="89.2" height="89.2"/>
	<g>
		<path fill="#FFFFFF" d="M44.9,47.1c-0.9-0.6-2.5-2.1-2.5-3c0-1,0.3-1.5,1.9-2.8c1.6-1.2,2.7-3,2.7-5c0-2.4-1.1-4.8-3.1-5.6h3.1
			l2.2-1.6h-9.6c-4.3,0-8.4,3.3-8.4,7.1c0,3.9,2.9,7,7.3,7c0.3,0,0.6,0,0.9,0c-0.3,0.5-0.5,1.2-0.5,1.8c0,1.1,0.6,2,1.3,2.7
			c-0.6,0-1.1,0-1.7,0c-5.4,0-9.5,3.4-9.5,7c0,3.5,4.5,5.7,9.9,5.7c6.1,0,9.5-3.5,9.5-7C48.3,50.6,47.4,48.9,44.9,47.1z M39.7,42.3
			c-2.5-0.1-4.8-2.8-5.3-6c-0.4-3.3,1.2-5.8,3.7-5.7c2.5,0.1,4.8,2.7,5.3,6C43.9,39.8,42.2,42.3,39.7,42.3z M38.8,58.8
			c-3.7,0-6.4-2.3-6.4-5.2c0-2.8,3.3-5.1,7-5c0.9,0,1.7,0.1,2.4,0.4c2,1.4,3.5,2.2,3.9,3.8c0.1,0.3,0.1,0.7,0.1,1
			C45.8,56.6,44,58.8,38.8,58.8z"/>
		<polygon fill="#FFFFFF" points="55.2,42.6 55.2,38.8 52.1,38.8 52.1,42.6 48.4,42.6 48.4,45.6 52.1,45.6 52.1,49.3 55.2,49.3 
			55.2,45.6 58.9,45.6 58.9,42.6 		"/>
	</g>
</g>
</svg>
