<?xml version="1.0" encoding="utf-8"?>
<!-- Generator: Adobe Illustrator 19.0.1, SVG Export Plug-In . SVG Version: 6.00 Build 0)  -->
<svg version="1.1" id="Layer_1" xmlns="http://www.w3.org/2000/svg" xmlns:xlink="http://www.w3.org/1999/xlink" x="0px" y="0px"
	 width="89.2px" height="89.2px" viewBox="0 0 89.2 89.2" enable-background="new 0 0 89.2 89.2" xml:space="preserve">
<g id="twitter">
	<rect fill="#EBE0C7" width="89.2" height="89.2"/>
	<g>
		<g>
			<path fill="#FFFFFF" d="M59.8,33.7c-1.2,0.6-2.4,0.9-3.8,1.1c1.4-0.9,2.4-2.2,2.9-3.9c-1.3,0.8-2.7,1.4-4.2,1.7
				c-1.2-1.4-2.9-2.2-4.8-2.2c-3.6,0-6.5,3.1-6.5,7c0,0.5,0.1,1.1,0.2,1.6c-5.4-0.3-10.3-3.1-13.5-7.3c-0.6,1-0.9,2.2-0.9,3.5
				c0,2.4,1.2,4.6,2.9,5.9c-1.1,0-2.1-0.3-3-0.9c0,0,0,0.1,0,0.1c0,3.4,2.3,6.2,5.2,6.9c-0.5,0.2-1.1,0.2-1.7,0.2
				c-0.4,0-0.8,0-1.2-0.1c0.8,2.8,3.2,4.8,6.1,4.9c-2.2,1.9-5.1,3-8.1,3c-0.5,0-1.1,0-1.6-0.1c2.9,2,6.3,3.2,10,3.2
				c12,0,18.6-10.7,18.6-20c0-0.3,0-0.6,0-0.9C57.8,36.3,58.9,35.1,59.8,33.7z"/>
		</g>
	</g>
</g>
</svg>
